HIERARCHY
ROOT Hips
{
	OFFSET -0.001795 -0.223333 0.028219
	CHANNELS 6 Xposition Yposition Zposition Zrotation Yrotation Xrotation 
	JOINT LeftUpLeg
	{
		OFFSET 0.069520 -0.091406 -0.006815
		CHANNELS 3 Zrotation Yrotation Xrotation
		JOINT LeftLeg
		{
			OFFSET 0.034277 -0.375199 -0.004496
			CHANNELS 3 Zrotation Yrotation Xrotation
			JOINT LeftFoot
			{
				OFFSET -0.013596 -0.397961 -0.043693
				CHANNELS 3 Zrotation Yrotation Xrotation
				JOINT LeftToe
				{
					OFFSET 0.026358 -0.055791 0.119288
					CHANNELS 3 Zrotation Yrotation Xrotation
					End Site
					{
						OFFSET 0.000000 0.000000 0.000000
					}
				}
			}
		}
	}
	JOINT RightUpLeg
	{
		OFFSET -0.067670 -0.090522 -0.004320
		CHANNELS 3 Zrotation Yrotation Xrotation
		JOINT RightLeg
		{
			OFFSET -0.038290 -0.382569 -0.008850
			CHANNELS 3 Zrotation Yrotation Xrotation
			JOINT RightFoot
			{
				OFFSET 0.015774 -0.398415 -0.042312
				CHANNELS 3 Zrotation Yrotation Xrotation
				JOINT RightToe
				{
					OFFSET -0.025372 -0.048144 0.123348
					CHANNELS 3 Zrotation Yrotation Xrotation
					End Site
					{
						OFFSET 0.000000 0.000000 0.000000
					}
				}
			}
		}
	}
	JOINT Spine
	{
		OFFSET -0.002533 0.108963 -0.026696
		CHANNELS 3 Zrotation Yrotation Xrotation
		JOINT Spine1
		{
			OFFSET 0.005487 0.135180 0.001092
			CHANNELS 3 Zrotation Yrotation Xrotation
			JOINT Spine2
			{
				OFFSET 0.001457 0.052922 0.025425
				CHANNELS 3 Zrotation Yrotation Xrotation
				JOINT Neck
				{
					OFFSET -0.002778 0.213870 -0.042857
					CHANNELS 3 Zrotation Yrotation Xrotation
					JOINT Head
					{
						OFFSET 0.005152 0.064970 0.051349
						CHANNELS 3 Zrotation Yrotation Xrotation
						End Site
						{
							OFFSET 0.000000 0.000000 0.000000
						}
					}
				}
				JOINT LeftShoulder
				{
					OFFSET 0.078845 0.121749 -0.034090
					CHANNELS 3 Zrotation Yrotation Xrotation
					JOINT LeftArm
					{
						OFFSET 0.090977 0.030469 -0.008868
						CHANNELS 3 Zrotation Yrotation Xrotation
						JOINT LeftForeArm
						{
							OFFSET 0.259612 -0.012772 -0.027456
							CHANNELS 3 Zrotation Yrotation Xrotation
							JOINT LeftHand
							{
								OFFSET 0.249234 0.008986 -0.001171
								CHANNELS 3 Zrotation Yrotation Xrotation
								End Site
								{
									OFFSET 0.000000 0.000000 0.000000
								}
							}
						}
					}
				}
				JOINT RightShoulder
				{
					OFFSET -0.081759 0.118833 -0.038615
					CHANNELS 3 Zrotation Yrotation Xrotation
					JOINT RightArm
					{
						OFFSET -0.096012 0.032551 -0.009143
						CHANNELS 3 Zrotation Yrotation Xrotation
						JOINT RightForeArm
						{
							OFFSET -0.253742 -0.013329 -0.021401
							CHANNELS 3 Zrotation Yrotation Xrotation
							JOINT RightHand
							{
								OFFSET -0.255298 0.007772 -0.005559
								CHANNELS 3 Zrotation Yrotation Xrotation
								End Site
								{
									OFFSET 0.000000 0.000000 0.000000
								}
							}
						}
					}
				}
			}
		}
	}
}
MOTION
Frames: 17
Frame Time: 0.050000
-0.153735 0.932770 -0.066982 0.507870 7.311208 -3.714143 19.782845 -0.390704 -2.537566 -4.934935 0.366191 16.768927 0.955105 7.329344 13.084761 0.000000 0.000000 0.000000 -15.393390 -0.499151 -8.460476 2.169929 -0.158938 16.638749 -2.446080 -8.980807 13.029354 0.000000 0.000000 0.000000 6.835779 -1.548729 14.172236 -7.490031 2.441305 -25.938781 -0.199732 8.648232 32.084768 8.579211 -1.004061 -28.018961 0.000000 0.000000 0.000000 -3.495800 10.472919 -4.809534 -50.204862 -6.363315 -6.652854 12.316796 -20.981828 -1.898615 0.000000 0.000000 0.000000 10.096227 -21.775983 -9.751822 53.023062 -9.189084 -10.472948 -0.510913 19.870060 1.464719 0.000000 0.000000 0.000000 
-0.116305 0.919432 -0.080529 0.178850 6.696502 -4.868760 18.531263 -0.227792 -3.266370 -5.410484 0.426954 21.298332 2.568599 7.883727 6.752572 0.000000 0.000000 0.000000 -17.052055 -0.792947 -10.615123 0.892141 0.257396 20.833646 -1.470335 -7.260126 12.989409 0.000000 0.000000 0.000000 6.347557 -1.752240 16.698387 -6.791169 2.245110 -26.869591 -0.183451 9.517164 31.702795 10.141468 -1.706856 -28.818214 0.000000 0.000000 0.000000 -1.056124 9.533046 -3.719284 -47.002918 -9.993019 -4.904324 16.231949 -17.793030 -2.361485 0.000000 0.000000 0.000000 7.877045 -22.354210 -9.749927 48.849696 -8.354126 -9.382511 -3.682707 17.253913 0.853497 0.000000 0.000000 0.000000 
-0.076222 0.911070 -0.096280 -0.082497 6.038264 -5.243940 16.480608 -0.065718 -5.141784 -6.197744 0.637748 25.465829 4.617519 10.188310 2.227025 0.000000 0.000000 0.000000 -18.635338 -1.050455 -12.058201 -0.333957 0.694929 21.528620 -0.298918 -5.321703 13.557657 0.000000 0.000000 0.000000 6.038026 -1.753647 17.295915 -7.157358 2.323578 -26.843436 0.055347 8.951700 31.482881 10.673822 -1.942201 -30.321541 0.000000 0.000000 0.000000 2.557033 9.322041 -2.630289 -41.274662 -16.000478 -2.488804 19.411116 -9.746938 -1.681894 0.000000 0.000000 0.000000 4.322472 -21.785751 -9.093672 41.841900 -5.955956 -7.571486 -7.694316 13.769731 0.301852 0.000000 0.000000 0.000000 
-0.035283 0.912864 -0.112056 -0.280420 5.679546 -5.406680 14.354058 -0.046616 -6.016230 -7.126005 0.962147 26.706077 4.891893 10.239488 0.579366 0.000000 0.000000 0.000000 -19.753570 -1.114720 -11.348142 -2.095261 1.152308 18.549707 2.008331 -2.148362 16.665187 0.000000 0.000000 0.000000 5.714373 -1.728223 17.597208 -6.410837 2.153679 -26.883377 -1.008139 8.589974 31.835236 10.214327 -1.616141 -31.389143 0.000000 0.000000 0.000000 7.527634 8.824052 -1.283421 -33.481043 -18.355620 -1.656950 21.697252 -2.252946 -0.761585 0.000000 0.000000 0.000000 0.130710 -21.213440 -8.367985 33.047300 -2.937993 -5.440158 -9.104401 8.503897 0.187995 0.000000 0.000000 0.000000 
0.001785 0.925972 -0.126092 -0.389516 4.016746 -4.208892 12.099169 -0.078323 -6.299525 -7.514963 1.250902 24.792840 5.118881 11.133475 2.179231 0.000000 0.000000 0.000000 -20.156878 -1.010878 -11.977736 -3.451166 1.365930 14.880589 3.190989 -2.022304 21.523760 0.000000 0.000000 0.000000 3.829597 -1.355381 16.970974 -4.746794 1.747932 -27.515323 -0.698855 8.443160 31.270634 11.448475 -2.753574 -29.855552 0.000000 0.000000 0.000000 12.492307 10.469075 -0.762474 -24.565540 -19.107539 -1.322783 19.456620 3.421334 0.119427 0.000000 0.000000 0.000000 -5.629261 -21.810887 -7.794739 24.147221 0.875966 -3.394806 -9.190303 2.732212 0.302366 0.000000 0.000000 0.000000 
0.030842 0.946695 -0.136758 -1.698454 2.067131 -2.667965 11.475454 -0.086979 -5.183034 -6.931094 1.153932 19.698328 4.231129 10.465983 6.314290 0.000000 0.000000 0.000000 -18.926336 -0.837350 -14.729290 -3.531740 1.440316 15.210991 3.841223 -2.703365 25.712756 0.000000 0.000000 0.000000 3.408341 -1.195533 16.024916 -3.647755 1.471393 -28.385607 -0.839571 7.734367 30.621090 9.757367 -2.091705 -29.755978 0.000000 0.000000 0.000000 17.974306 11.650910 -0.243470 -16.167161 -17.448405 -1.338368 18.418115 7.445120 0.636547 0.000000 0.000000 0.000000 -10.498309 -20.355976 -6.408426 16.492643 3.277556 -2.104033 -9.334901 -0.109068 0.384816 0.000000 0.000000 0.000000 
0.051460 0.974361 -0.144653 -2.843723 0.805377 -0.881758 10.128026 -0.133369 -3.500383 -4.273157 0.483926 12.915549 3.095629 9.396788 10.384635 0.000000 0.000000 0.000000 -16.287149 -0.437316 -16.720091 -2.468189 1.420274 18.840772 4.236772 -1.731159 24.065937 0.000000 0.000000 0.000000 3.392062 -1.174535 15.781162 -2.608850 1.231368 -30.392379 -1.476305 6.593712 30.663340 10.721949 -3.440514 -27.097988 0.000000 0.000000 0.000000 23.383053 15.329249 -0.354610 -9.372939 -16.453298 -1.268779 15.726176 8.053099 0.647338 0.000000 0.000000 0.000000 -15.669726 -22.138646 -5.783661 11.811758 6.540523 -1.391842 -10.147774 -0.082539 0.389836 0.000000 0.000000 0.000000 
0.065939 1.003347 -0.150519 -3.920477 -1.016830 1.022496 10.171374 -0.128081 -2.392887 -1.796644 0.064172 7.910624 0.931579 7.271714 16.575108 0.000000 0.000000 0.000000 -12.116116 0.261283 -18.822263 -2.492899 1.865601 24.283434 4.883280 -0.552061 22.823250 0.000000 0.000000 0.000000 4.405964 -1.204766 14.394113 -2.813771 1.259851 -30.566833 -1.795354 6.540699 28.970403 10.582240 -4.060607 -23.989242 0.000000 0.000000 0.000000 29.250649 16.903575 0.305054 -3.115763 -15.139090 -1.116321 14.178344 7.589052 0.559818 0.000000 0.000000 0.000000 -19.644001 -21.799914 -4.734405 5.315550 8.711102 -0.892418 -10.689393 -0.686573 0.416337 0.000000 0.000000 0.000000 
0.076925 1.026745 -0.154837 -3.579370 -1.208659 1.808674 9.565832 -0.140805 -1.402751 -0.351430 -0.072066 3.705795 -1.203577 5.467834 21.554589 0.000000 0.000000 0.000000 -10.068786 0.552519 -17.710940 -2.216055 1.855003 25.280406 4.865002 -0.796782 23.287310 0.000000 0.000000 0.000000 3.045860 -0.958385 13.482444 -1.801253 1.086100 -31.676570 -2.413006 5.477326 29.155219 11.160808 -5.110980 -21.800320 0.000000 0.000000 0.000000 32.574880 16.853669 0.463065 5.446558 -13.799355 -0.863492 16.592749 8.595183 0.811408 0.000000 0.000000 0.000000 -21.975381 -21.741960 -4.113050 -2.018772 13.297067 -0.841509 -11.975263 -4.091693 0.686670 0.000000 0.000000 0.000000 
0.085699 1.035822 -0.157910 -3.236531 -1.162603 2.371913 8.960350 -0.156084 -1.636436 0.160871 -0.086071 1.969186 -3.244412 3.431674 24.043904 0.000000 0.000000 0.000000 -9.238265 0.628865 -16.096778 -2.230980 1.760468 23.898259 5.004760 -0.675365 23.544877 0.000000 0.000000 0.000000 3.308309 -0.893982 11.978584 -2.211501 1.152521 -31.233593 -2.072287 5.231289 27.495649 13.242900 -6.565578 -21.329579 0.000000 0.000000 0.000000 37.938772 16.558362 1.496880 10.488629 -15.856399 -1.175784 20.740463 11.394593 1.443593 0.000000 0.000000 0.000000 -27.024523 -20.032410 -2.836852 -10.630309 16.408387 -1.175644 -13.980399 -8.162656 1.192028 0.000000 0.000000 0.000000 
0.091963 1.035496 -0.160466 -3.091623 -0.509935 1.975357 8.217380 -0.152024 -1.132950 -0.272180 -0.063201 2.977839 -2.774078 4.317979 24.496543 0.000000 0.000000 0.000000 -8.263146 0.646312 -14.187191 -3.009615 1.793788 21.411403 4.559730 -1.135863 23.225228 0.000000 0.000000 0.000000 3.712463 -0.872886 10.998869 -2.726332 1.244616 -30.901914 -1.965986 5.051967 27.475716 12.834398 -6.163273 -21.771560 0.000000 0.000000 0.000000 42.176428 14.803660 2.243681 15.300111 -17.366045 -1.603146 28.734854 16.327502 3.030995 0.000000 0.000000 0.000000 -31.491401 -19.789965 -2.133524 -17.488759 21.132336 -2.271077 -16.653375 -11.077997 1.814226 0.000000 0.000000 0.000000 
0.094638 1.042812 -0.162592 -3.371298 0.193628 2.219360 9.346995 -0.194275 -2.649571 -0.906827 -0.020856 4.551336 -3.074959 5.426288 29.256682 0.000000 0.000000 0.000000 -7.981751 0.625810 -13.164002 -2.178347 1.449863 20.487181 4.094152 -2.668288 25.955741 0.000000 0.000000 0.000000 4.173744 -0.927166 10.862489 -1.323723 1.017769 -33.418331 -3.024647 6.365151 29.216783 12.661426 -5.772485 -22.120180 0.000000 0.000000 0.000000 46.324042 14.817659 3.114957 17.436996 -19.799824 -2.425766 35.444464 19.869679 4.466487 0.000000 0.000000 0.000000 -36.014310 -19.840468 -2.063312 -20.723256 24.356113 -2.994506 -19.927569 -13.031131 2.656260 0.000000 0.000000 0.000000 
0.094978 1.063625 -0.162773 -3.423691 -0.834592 3.239896 10.496906 -0.182401 -4.593898 -1.213150 0.046204 3.885412 -3.716715 6.064188 35.239741 0.000000 0.000000 0.000000 -7.291343 0.749381 -13.575822 -2.443624 1.439071 18.509428 6.982081 -0.574770 31.060346 0.000000 0.000000 0.000000 5.199510 -0.855803 8.650469 -1.512214 1.048094 -32.593801 -2.430288 7.884633 27.833915 11.220133 -4.746040 -21.141446 0.000000 0.000000 0.000000 48.067858 13.477056 3.937379 18.407148 -22.583798 -3.399823 43.515196 22.385595 6.287324 0.000000 0.000000 0.000000 -38.492071 -17.120272 -1.637710 -26.228599 26.779350 -3.988972 -23.590432 -15.323382 3.694921 0.000000 0.000000 0.000000 
0.094883 1.088814 -0.161064 -2.227209 -0.865567 3.758029 8.631058 -0.252841 -5.704647 -0.516808 -0.042802 3.477227 -5.297742 5.015845 37.664931 0.000000 0.000000 0.000000 -7.670919 0.676352 -12.171839 -3.310939 1.389392 14.685774 9.061955 0.570909 35.257944 0.000000 0.000000 0.000000 4.953349 -0.705796 7.088492 -2.569546 1.226316 -33.851151 -1.978344 6.636661 28.530482 11.103611 -5.215295 -19.700949 0.000000 0.000000 0.000000 48.898395 10.653206 3.314600 16.339912 -24.642968 -3.556052 51.604839 25.003023 9.225669 0.000000 0.000000 0.000000 -39.449570 -15.252453 -1.168711 -32.999289 30.234894 -6.297591 -29.101541 -22.488900 6.128538 0.000000 0.000000 0.000000 
0.094761 1.095394 -0.159440 -2.214073 0.746452 3.026681 7.541644 -0.319921 -6.395326 0.713098 -0.295602 5.337838 -5.559475 4.350389 35.167323 0.000000 0.000000 0.000000 -7.009064 0.601465 -10.323207 -3.397815 1.286551 13.386999 8.069698 0.500852 32.952304 0.000000 0.000000 0.000000 5.338407 -0.747880 7.259465 -3.070588 1.277868 -33.745198 -1.934292 5.149474 28.072646 11.335083 -5.533913 -19.331925 0.000000 0.000000 0.000000 46.379488 7.621698 2.857904 17.090882 -24.868805 -3.665312 58.790941 26.662519 11.663078 0.000000 0.000000 0.000000 -38.872967 -13.486564 -1.075091 -36.747817 32.844052 -8.134759 -38.346698 -27.821133 9.936887 0.000000 0.000000 0.000000 
0.094613 1.078798 -0.158667 -2.378826 2.250289 2.038975 8.304701 -0.301964 -6.273117 0.750409 -0.389836 7.167800 -4.475666 4.707023 31.153577 0.000000 0.000000 0.000000 -6.432516 0.520850 -8.652654 -2.118040 0.904163 12.179428 5.789475 -1.468335 30.824267 0.000000 0.000000 0.000000 5.236865 -0.697512 6.923581 -2.805639 1.236296 -32.539400 -1.651559 4.404047 27.829002 10.217260 -5.133710 -17.354595 0.000000 0.000000 0.000000 44.872499 5.155958 2.790154 14.621626 -24.830612 -3.403201 66.871504 26.870598 13.617269 0.000000 0.000000 0.000000 -38.312864 -11.835168 -1.260804 -35.170707 35.416061 -8.718756 -50.346131 -29.765444 14.576149 0.000000 0.000000 0.000000 
0.094231 1.040785 -0.159970 -2.147079 2.164775 0.552598 8.844685 -0.238660 -5.249788 0.293142 -0.402417 9.279016 -1.950170 6.556712 26.916194 0.000000 0.000000 0.000000 -5.604622 0.491345 -7.529125 -2.756030 1.056523 12.317626 4.611782 -2.815364 29.919552 0.000000 0.000000 0.000000 4.915757 -0.670002 7.195330 -2.174931 1.143710 -31.814377 -1.920861 4.331671 29.007197 8.708517 -4.093281 -17.616211 0.000000 0.000000 0.000000 43.161569 3.860764 2.378343 11.496403 -23.438313 -2.733017 72.688121 25.231677 14.004764 0.000000 0.000000 0.000000 -34.776248 -10.795190 -1.798163 -36.166984 41.431051 -11.576852 -64.759362 -32.401523 21.008235 0.000000 0.000000 0.000000 
